<?xml version="1.0" standalone="no"?>
<!DOCTYPE svg PUBLIC "-//W3C//DTD SVG 20010904//EN"
 "http://www.w3.org/TR/2001/REC-SVG-20010904/DTD/svg10.dtd">
<svg version="1.0" xmlns="http://www.w3.org/2000/svg"
 width="260.000000pt" height="260.000000pt" viewBox="0 0 260.000000 260.000000"
 preserveAspectRatio="xMidYMid meet">
<metadata>
Created by potrace 1.11, written by Peter Selinger 2001-2013
</metadata>
<g transform="translate(0.000000,260.000000) scale(0.100000,-0.100000)"
fill="#000000" stroke="none">
<path d="M1101 2584 c-273 -43 -545 -185 -735 -385 -336 -353 -449 -842 -300
-1299 91 -280 274 -519 523 -685 326 -217 735 -272 1111 -149 280 91 519 274
685 523 217 326 272 735 149 1111 -91 280 -274 519 -523 685 -265 176 -592
248 -910 199z m90 -523 l29 -29 0 -727 0 -727 -29 -29 c-40 -39 -82 -39 -122
0 l-29 29 0 727 0 727 29 29 c20 20 39 29 61 29 22 0 41 -9 61 -29z m-340
-230 l29 -29 0 -497 0 -497 -29 -29 c-40 -39 -82 -39 -122 0 l-29 29 0 497 0
497 29 29 c20 20 39 29 61 29 22 0 41 -9 61 -29z m680 -70 l29 -29 0 -427 0
-427 -29 -29 c-40 -39 -82 -39 -122 0 l-29 29 0 427 0 427 29 29 c20 20 39 29
61 29 22 0 41 -9 61 -29z m680 -110 l29 -29 0 -317 0 -317 -29 -29 c-20 -20
-39 -29 -61 -29 -22 0 -41 9 -61 29 l-29 29 0 317 0 317 29 29 c20 20 39 29
61 29 22 0 41 -9 61 -29z m-1700 -70 l29 -29 0 -247 0 -247 -29 -29 c-40 -39
-82 -39 -122 0 l-29 29 0 247 0 247 29 29 c40 39 82 39 122 0z m1360 -90 l29
-29 0 -157 0 -157 -29 -29 c-20 -20 -39 -29 -61 -29 -22 0 -41 9 -61 29 l-29
29 0 157 0 157 29 29 c20 20 39 29 61 29 22 0 41 -9 61 -29z"/>
</g>
</svg>
